Coordinates
version=1
nRows=54
nColumns=12
inDegrees=yes

Units are S.I. units (second, meters, Newtons, ...)
Angles are in degrees

endheader
time	SC_y	SC_z	SC_x	AC_y	AC_z	AC_x	GH_y	GH_z	GH_yy	EL_x	PS_y
       0.0              -19.49          8.452          7.854           58.6          8.974          19.76          106.0         -11.75          146.5          8.256          34.13
   0.02758              -19.49          8.454          7.865          58.61          8.971          19.76          106.0         -11.74          146.5          8.272          34.14
   0.05516               -19.5          8.457          7.875          58.61          8.968          19.76          106.0         -11.73          146.4          8.289          34.14
   0.08274              -19.51           8.46          7.887          58.61          8.964          19.76          106.0         -11.71          146.4          8.307          34.14
    0.1103              -19.51          8.463          7.899          58.61           8.96          19.75          105.9          -11.7          146.4          8.326          34.15
    0.1379              -19.52          8.466          7.913          58.61          8.956          19.75          105.9         -11.68          146.4          8.346          34.15
    0.1655              -19.53          8.469          7.927          58.61          8.951          19.75          105.9         -11.67          146.3          8.368          34.16
    0.1931              -19.54          8.473          7.942          58.62          8.946          19.75          105.8         -11.65          146.3          8.392          34.16
    0.2206              -19.55          8.477          7.958          58.62          8.941          19.75          105.8         -11.63          146.3          8.417          34.17
    0.2482              -19.55          8.481          7.975          58.62          8.935          19.75          105.7         -11.61          146.2          8.444          34.17
    0.2758              -19.57          8.486          7.994          58.62          8.929          19.75          105.7         -11.59          146.2          8.472          34.18
    0.3034              -19.58          8.491          8.014          58.63          8.923          19.74          105.7         -11.56          146.2          8.503          34.18
     0.331              -19.59          8.496          8.035          58.63          8.916          19.74          105.6         -11.54          146.1          8.537          34.19
    0.3586               -19.6          8.502          8.058          58.63          8.909          19.74          105.5         -11.51          146.1          8.573           34.2
    0.3861              -19.61          8.508          8.084          58.63          8.901          19.74          105.5         -11.48          146.0          8.612          34.21
    0.4137              -19.63          8.515          8.111          58.64          8.892          19.73          105.4         -11.45          146.0          8.655          34.21
    0.4413              -19.65          8.522          8.141          58.64          8.882          19.73          105.3         -11.41          145.9          8.701          34.22
    0.4689              -19.66           8.53          8.173          58.65          8.872          19.73          105.3         -11.37          145.9          8.751          34.23
    0.4965              -19.68          8.539          8.208          58.65           8.86          19.72          105.2         -11.33          145.8          8.806          34.24
     0.524               -19.7          8.548          8.247          58.66          8.848          19.72          105.1         -11.29          145.7          8.866          34.26
    0.5516              -19.73          8.559          8.289          58.66          8.834          19.72          105.0         -11.23          145.7          8.932          34.27
    0.5792              -19.75           8.57          8.336          58.67          8.819          19.71          104.9         -11.18          145.6          9.005          34.29
    0.6068              -19.78          8.583          8.388          58.68          8.803          19.71          104.7         -11.12          145.5          9.085           34.3
    0.6344              -19.81          8.597          8.445          58.68          8.784           19.7          104.6         -11.05          145.4          9.174          34.32
    0.6619              -19.85          8.613          8.508          58.69          8.764           19.7          104.4         -10.98          145.2          9.272          34.34
    0.6895              -19.89           8.63          8.579           58.7          8.741          19.69          104.3         -10.89          145.1          9.383          34.36
    0.7171              -19.93           8.65          8.659          58.71          8.715          19.68          104.1          -10.8          145.0          9.506          34.39
    0.7447              -19.98          8.672          8.748          58.72          8.687          19.67          103.9         -10.69          144.8          9.645          34.42
    0.7723              -20.03          8.697          8.849          58.74          8.654          19.66          103.6         -10.57          144.6          9.802          34.45
    0.7998               -20.1          8.725          8.964          58.75          8.617          19.65          103.3         -10.44          144.4           9.98          34.48
    0.8274              -20.17          8.757          9.095          58.77          8.575          19.64          103.0         -10.28          144.1          10.18          34.53
     0.855              -20.25          8.794          9.245          58.79          8.527          19.63          102.6          -10.1          143.8          10.42          34.57
    0.8826              -20.34          8.837          9.418          58.81          8.471          19.61          102.2         -9.896          143.5          10.69          34.63
    0.9102              -20.46          8.886           9.62          58.84          8.406          19.59          101.7         -9.657          143.1           11.0          34.69
    0.9377              -20.58          8.944          9.856          58.87           8.33          19.57          101.2         -9.378          142.7          11.37          34.77
    0.9653              -20.74          9.013          10.13          58.91          8.241          19.54          100.5         -9.048          142.2           11.8          34.85
    0.9929              -20.92          9.094          10.46          58.95          8.135          19.51          99.68         -8.657          141.5          12.31          34.96
      1.02              -21.13          9.192          10.86           59.0          8.007          19.47          98.71         -8.187          140.8          12.93          35.08
     1.048               -21.4          9.309          11.34          59.07          7.853          19.43          97.54          -7.62          139.9          13.67          35.24
     1.076              -21.72          9.454          11.92          59.14          7.665          19.37          96.12         -6.926          138.8          14.58          35.42
     1.103              -22.11          9.631          12.65          59.24          7.433           19.3          94.35          -6.07          137.4           15.7          35.65
     1.131               -22.6          9.853          13.55          59.36          7.143          19.22          92.16         -5.002          135.7           17.1          35.93
     1.158              -23.23          10.13          14.68          59.51          6.778          19.11          89.39         -3.657          133.6          18.86          36.29
     1.186              -24.01          10.49          16.12           59.7          6.314          18.97          85.88         -1.947          130.8           21.1          36.75
     1.214              -25.02          10.94          17.97          59.94           5.72          18.79          81.37         0.2412          127.3          23.97          37.33
     1.241              -26.32          11.53          20.34          60.26          4.958          18.57           75.6           3.05          122.9          27.65          38.08
     1.269              -27.98          12.27          23.36          60.66          3.984          18.28          68.22          6.637          117.1          32.36          39.04
     1.296              -30.06          13.21          27.17          61.16           2.76          17.92          58.94          11.15          109.9          38.27          40.24
     1.324               -32.6          14.35           31.8          61.77          1.269          17.47          47.64          16.64          101.2          45.47          41.71
     1.351              -35.54          15.67          37.17          62.49        -0.4602          16.96          34.53          23.02          91.01          53.82          43.41
     1.379              -38.72           17.1          42.99          63.26         -2.332          16.41          20.34          29.91          80.01          62.86          45.25
     1.407              -41.91          18.54          48.81          64.03         -4.205          15.85          6.154          36.81           69.0          71.91          47.09
     1.434              -44.85          19.86          54.18          64.74         -5.934          15.34         -6.951          43.18          58.84          80.26          48.79
     1.462              -47.39           21.0          58.82          65.35         -7.425           14.9         -18.26          48.68          50.07          87.46          50.26
